:SAMPLES-PER-SECOND 30
:FULLY-SPECIFIED
:DEGREES
370
root  10.9828 32.7373 40.2543 -171.934 37.1688 -164.532
RightUpLeg  -41.8521 -1.20592 0.182549
RightLeg  46.8573 2.39518 2.43014
RightFoot  -4.06843 -0.981614 14.953
RightToes  -5.82094e-011 -1.98785e-016 -5.10186e-018
Spine  29.0269 -3.94451 -12.3381
Spine1  -4.92286 -10.5207 28.312
HEad  -22.3637 -53.65 35.4408
LeftShoulder1  3.14974 -19.6975 -5.75704
LeftArm  40.775 -44.763 -81.8761
LeftForeArm  75.3508 -68.4906 -20.0272
LeftHand  -0.275098 2.72724 11.6864
RightShoulder  2.46374 6.81791 17.2882
RightArm  26.0288 -11.3493 21.4741
RightForeArm  1.59337 24.5672 4.42591
RightHand  -2.20634 9.23984 -17.6989
LeftUpLeg  7.79443 -5.97514 26.3572
LeftLeg  62.6891 9.22068 18.9759
LeftFoot  -1.22816 0.851034 -8.08965
LeftToes  -8.4584e-011 5.90861e-011 8.40072e-012
371
root  10.8415 33.045 40.8349 -172.626 38.3162 -165.465
RightUpLeg  -41.2704 0.107631 -0.127208
RightLeg  44.0435 2.08827 1.86704
RightFoot  -1.70757 -1.1818 13.7834
RightToes  -5.82094e-011 -1.98785e-016 -5.10186e-018
Spine  30.1087 -3.06283 -10.6496
Spine1  -4.21888 -9.09326 24.5541
HEad  -22.1315 -54.8677 36.046
LeftShoulder1  3.23058 -19.1495 -6.54556
LeftArm  33.0832 -42.8437 -73.5453
LeftForeArm  76.9975 -70.7379 -23.1178
LeftHand  -0.259115 2.64421 10.7472
RightShoulder  2.34184 7.21426 15.0525
RightArm  19.043 -6.57318 23.0421
RightForeArm  7.75197 29.6999 6.02129
RightHand  -1.80296 10.0859 -13.8201
LeftUpLeg  0.410949 -5.61896 23.5703
LeftLeg  71.2011 3.48419 12.6699
LeftFoot  -10.8815 8.09466e-005 -2.58182
LeftToes  -8.4584e-011 5.90861e-011 8.40072e-012
372
root  10.767 33.3209 41.3723 -174.78 38.3553 -167.685
RightUpLeg  -40.2071 2.23411 -1.9935
RightLeg  42.1154 0.388117 0.0856149
RightFoot  -0.0742065 -1.41741 14.2935
RightToes  -5.82094e-011 -1.98785e-016 -5.10186e-018
Spine  31.4748 -2.15223 -11.1883
Spine1  -4.36017 -8.49483 22.9997
HEad  -19.5305 -56.9398 34.4511
LeftShoulder1  3.29009 -17.853 -7.81782
LeftArm  26.9655 -40.9687 -65.1173
LeftForeArm  80.5766 -74.4408 -30.0046
LeftHand  -0.218259 3.4267 12.2731
RightShoulder  2.17613 7.02356 13.7646
RightArm  20.1572 -6.20221 25.1403
RightForeArm  9.363 29.1208 5.79965
RightHand  -1.93209 10.5105 -14.3946
LeftUpLeg  -5.95855 -4.9548 19.0431
LeftLeg  77.3233 1.41327 8.65936
LeftFoot  -17.3845 -0.170244 -5.44165
LeftToes  -8.4584e-011 5.90861e-011 8.40072e-012
373
root  10.6914 33.6232 41.819 -176.678 37.163 -168.969
RightUpLeg  -38.3366 3.20611 -3.06161
RightLeg  39.9693 -1.41975 -1.5561
RightFoot  1.4831 -1.63844 14.6028
RightToes  -5.82094e-011 -1.98785e-016 -5.10186e-018
Spine  32.1518 -1.84476 -10.71
Spine1  -3.43895 -8.24012 20.9448
HEad  -19.0877 -59.2008 34.5468
LeftShoulder1  3.07422 -16.8703 -7.48349
LeftArm  21.2446 -41.2121 -59.3176
LeftForeArm  89.5426 -77.2023 -37.6419
LeftHand  -0.330277 2.4739 12.9248
RightShoulder  2.32459 6.67127 16.1966
RightArm  26.0887 -11.2104 24.6476
RightForeArm  8.97333 25.1002 4.8107
RightHand  -2.08137 10.3833 -15.6004
LeftUpLeg  -10.6891 -4.59674 14.1778
LeftLeg  79.7083 -0.747535 -2.93673
LeftFoot  -22.4891 -0.521783 -6.69359
LeftToes  -8.4584e-011 5.90861e-011 8.40072e-012
374
root  10.5445 33.8268 42.2931 -177.797 36.2455 -169.298
RightUpLeg  -36.8589 4.13074 -3.3833
RightLeg  37.8122 -3.18875 -2.92201
RightFoot  3.47167 -1.88252 14.5857
RightToes  -5.82094e-011 -1.98785e-016 -5.10186e-018
Spine  33.2324 -1.15903 -11.4773
Spine1  -3.66676 -8.22578 21.8234
HEad  -16.8626 -60.0668 32.0032
LeftShoulder1  2.84735 -15.7176 -7.17511
LeftArm  15.5535 -43.2435 -54.8757
LeftForeArm  95.6083 -78.6969 -44.0533
LeftHand  -0.371593 2.24554 13.5715
RightShoulder  2.26614 5.37535 19.0832
RightArm  29.3846 -19.1645 24.0349
RightForeArm  11.773 18.2224 5.70776
RightHand  -2.08352 9.45829 -16.5421
LeftUpLeg  -13.2329 -2.29004 9.26221
LeftLeg  79.5527 -2.15807 -12.2377
LeftFoot  -22.8661 -0.884197 -10.2032
LeftToes  -8.4584e-011 5.90861e-011 8.40072e-012
375
root  10.3164 34.0204 42.8338 -178.046 35.614 -168.114
RightUpLeg  -35.071 4.79609 -2.29468
RightLeg  34.6224 -4.75538 -3.75508
RightFoot  6.43412 -2.24102 14.5767
RightToes  -5.82094e-011 -1.98785e-016 -5.10186e-018
Spine  33.5327 -0.827004 -13.5894
Spine1  -2.2448 -9.48437 24.06
HEad  -13.5879 -58.6045 28.9352
LeftShoulder1  2.48991 -14.6553 -5.94756
LeftArm  9.83788 -47.5587 -54.9795
LeftForeArm  97.8015 -78.953 -45.1807
LeftHand  -0.419402 1.7712 13.3714
RightShoulder  2.22478 4.51211 21.4604
RightArm  14.8827 -27.1427 22.7785
RightForeArm  34.6116 8.15289 11.3352
RightHand  -1.87139 8.86868 -15.4502
LeftUpLeg  -13.7068 1.10624 5.79973
LeftLeg  76.649 -2.70266 -12.2109
LeftFoot  -19.9937 -0.564239 -8.36136
LeftToes  -8.4584e-011 5.90861e-011 8.40072e-012
376
root  9.97968 34.4792 43.4193 -175.824 35.0363 -165.163
RightUpLeg  -33.6483 3.96437 0.537691
RightLeg  28.4635 -5.53973 -3.49455
RightFoot  13.1768 -2.95285 14.0764
RightToes  -5.82094e-011 -1.98785e-016 -5.10186e-018
Spine  32.0853 -1.17333 -17.5054
Spine1  1.80568 -12.5878 27.0289
HEad  -10.3556 -54.2672 26.9785
LeftShoulder1  2.14648 -14.7701 -3.74792
LeftArm  6.67717 -53.3652 -58.4058
LeftForeArm  98.5624 -78.6489 -42.9147
LeftHand  -0.305204 3.04185 14.8224
RightShoulder  2.33889 4.41051 23.4041
RightArm  2.24919 -34.623 21.7602
RightForeArm  51.0055 0.660509 12.1019
RightHand  -1.13028 6.64665 -11.0888
LeftUpLeg  -12.7269 4.58643 5.38765
LeftLeg  69.3169 -1.41763 -3.674
LeftFoot  -18.7481 -0.016646 -2.29131
LeftToes  -8.4584e-011 5.90861e-011 8.40072e-012
